<svg xmlns="http://www.w3.org/2000/svg" viewBox="0 0 1000.2 889.77"><defs><style>.cls-1{fill:#fff;stroke:#fff;stroke-miterlimit:10;stroke-width:2px;}.cls-2{fill:#f6bd36;}.cls-3{fill:#29abe2;}</style></defs><g id="Layer_2" data-name="Layer 2"><g id="_3.0" data-name="3.0"><path class="cls-1" d="M458.7,888.77a85.91,85.91,0,0,1-21.06-2.33c-17.88-4.67-25.78-12.07-34.93-20.64-5.84-5.45-11.87-7.1-20.25-11.82-11.49-6.47-21.85-9.49-32.62-9.49-7.46,0-14.13,1.39-21.19,2.86-8.3,1.73-17.72-.31-30.86-.31a160.43,160.43,0,0,1-17.42-1c-19-2.11-24.23-3.78-49.48-11.81-7.95-2.53-17.85-5.67-30.58-9.59-14.9-4.58-47-18.46-53.66-29.8-3.13-5.32-8.58-8.77-16.83-14-4.93-3.11-16.47-10.41-18.5-14a69.24,69.24,0,0,0-40.1-32.76c-8-2.51-15.8-4.7-22.07-6.46-5.34-1.51-9.95-2.8-12.6-3.7-13-4.43-35.63-15.32-35.16-35.31,0-1.12.05-2,0-2.92v-.12c-.25-5.83-.5-15.42-.34-17.63.22-2.41.29-13.9.54-130.76.33-154.59.88-413.31,2.75-454.95q0-.83.06-2c.08-4.1.21-11,4.17-14.69,8.51-8,33.41-9,39.34-9,1.12,0,2.12,0,3,.06s1.82.06,2.53.06h.91c2.21-.07,6.33-.09,12.61-.09,5.59,0,12.09,0,18.37,0,5.91,0,11.63,0,16.22,0,4,0,6.73,0,8.49,0l53.26-1c9-.18,45.08-.87,54.13-1l12.81-.19c17.36-.24,31-.44,34.93-.67,5.5-.32,10.82-.49,15.81-.49,18.34,0,33.6,2.11,49.45,6.83,4.42,1.31,11.08,5.06,17.53,8.68,13.3,7.49,28.38,16,43.92,16h.58c6.29.16,30.76,7.5,35.79,10.77,3.85,2.62,8,8.14,11.06,12.17,1.7,2.24,3.16,4.18,4.68,5.86,6.39,7,16.23,10.61,29.23,10.61,23.4,0,56.12-11.56,73.54-18.46a80,80,0,0,1,14.68-3.93C573.56,99.24,584.69,91.2,612,73.3l1.48-1,.83-.86c3.31-2.49,16.89-9.94,25.95-14.92,11-6,21.3-11.68,27.77-15.86C683.2,30.91,700.82,22,721.93,13.32l1.91-.79c36.77-15.61,70.1-10.84,75.7-10.84C828.33,1.69,844,12,845.15,16c.21,7.82,2.46,147.31,3.63,225.69V242c.83,22.28,20,36.68,48.79,36.68h.62c48.42,1.26,69.35,40.81,73.33,46.47,17.65,25.08,27,61.52,27.66,108.33.38,33.13-5.45,66.35-16.41,93.46-8.32,20.59-25,50.23-40.82,67-12.83,13.64-65.89,54.37-93,55.93-10.65.61-71.68,5.44-118,16.33-37.41,8.78-59.47,32.33-60.73,33.11l-2.27,1.41-1.68,2.07c-6.18,7.59-11.31,13.7-15.83,19.08-15.63,18.62-25.07,29.86-50.16,68.28-1.27,1.94-2.59,4-4,6.15-14.34,22.35-34,53-73.6,75.72-18.5,10.63-41.81,16.73-63.94,16.73Z"/><path class="cls-2" d="M733.87,321.28c3.46-3.24.36-9.52-4-11.39a11,11,0,0,0-4.42-.93H139.7a21.86,21.86,0,0,0-15.45,5.13,23.08,23.08,0,0,0-7.75,15.06v.1c.58,42.06-1.2,289.79-1.06,290.54.55,2.87,2.19,10.15,8.82,12.79,13.36,5.32,30.36,5.32,49.86,17.78,15.23,9.72,15.88,24,18,29.67l0,.11c.51,2,2.17,9.34,9.06,13.58,14.36,8.83,39.42,5.4,51.55,17.46,2.65,2.65,11.81,10.87,22.49,10,15.43-1.2,19.19-3.63,26.32-2.25,11.91,2.31,17.78,5,28.56,11.22,4.64,2.7,11.32,4.07,16.14-.14.84-.74,14.39-12.78,22.15-16.61,10.44-5.17,21.52-9.25,31.75-4.16,10.73,5.35,15,26.61,15,26.65,3.36,12.8,25.45,19.59,30.36,20,6.8.55,24-3.65,31.64-16,5.36-8.67,10.68-29.68,12.29-33.54,3.59-8.6,17.07-38.76,24.45-44.87,6-5,12-7.7,18.66-10.4,30-12.22,63.78-63.38,65.38-65.55,4.58-6.19,12-12,20.89-12.85,5-.49,15.69,5.64,27.78,2,8.07-2.39,13.31-10.52,20.53-18.95a173.33,173.33,0,0,1,25.63-24.71c4.31-3.32,5.71-6.28,5.76-12.19a82.27,82.27,0,0,1,3.29-21.41c2.31-8.27,11.67-38.91,13.71-46.07,1-3.57,11.63-58.53,10.5-70.44-.16-1.76-5.51-26.41-5.51-32.51C720.61,340.31,725.61,329,733.87,321.28ZM548.08,449.9a5.22,5.22,0,1,1-5.22-5.49A5.37,5.37,0,0,1,548.08,449.9Zm-9.52-39.18a5.51,5.51,0,1,1-5.21,5.5A5.37,5.37,0,0,1,538.56,410.72Zm-6.37,20.81a2.25,2.25,0,0,1-1,2.94,2,2,0,0,1-2.78-1,2.24,2.24,0,0,1,1-2.93A2,2,0,0,1,532.19,431.53Zm-3,74.23a2,2,0,0,1-2.79-1,2.26,2.26,0,0,1,1-2.94,2,2,0,0,1,2.79,1A2.26,2.26,0,0,1,529.17,505.76Zm-2.88-110.24a2,2,0,0,1,2.79,1,2.26,2.26,0,0,1-1,2.94,2,2,0,0,1-2.79-1A2.26,2.26,0,0,1,526.29,395.52Zm-17.64,15.31a2,2,0,0,1,2.79,1,2.26,2.26,0,0,1-1,2.94,2,2,0,0,1-2.79-1A2.25,2.25,0,0,1,508.65,410.83ZM491,393.33a2,2,0,0,1,2.78,1,2.25,2.25,0,0,1-1,2.94,2,2,0,0,1-2.79-1A2.26,2.26,0,0,1,491,393.33Zm1,21.55a5.5,5.5,0,1,1-5.22,5.5A5.36,5.36,0,0,1,492,414.88Zm-4.32,72.63a2,2,0,0,1,2.79,1,2.25,2.25,0,0,1-1,2.93,2,2,0,0,1-2.78-1A2.25,2.25,0,0,1,487.71,487.51ZM475.06,464.2a5.22,5.22,0,1,1,5.22,5.49A5.37,5.37,0,0,1,475.06,464.2Zm13.56,66c-6.33,0-11.47-5.42-11.47-12.1S482.29,506,488.62,506s11.48,5.41,11.48,12.09S495,530.17,488.62,530.17Zm10.43,51.68a2.2,2.2,0,1,1,2.09-2.2A2.14,2.14,0,0,1,499.05,581.85ZM493.84,452.1c0-6.68,5.14-12.09,11.47-12.09s11.48,5.41,11.48,12.09-5.14,12.1-11.48,12.1S493.84,458.78,493.84,452.1Zm15.64,99a5.5,5.5,0,1,1,5.22-5.5A5.36,5.36,0,0,1,509.48,551.06Zm7.17-20a2,2,0,0,1-2.78-1,2.25,2.25,0,0,1,1-2.94,2,2,0,0,1,2.79,1A2.26,2.26,0,0,1,516.65,531.05Zm-1.95-35a5.5,5.5,0,1,1,5.22-5.49A5.36,5.36,0,0,1,514.7,496.08Zm7.51-28.72a2.25,2.25,0,0,1,1-2.94,2,2,0,0,1,2.78,1,2.23,2.23,0,0,1-1,2.93A2,2,0,0,1,522.21,467.36ZM528.13,564a2,2,0,0,1-2.79-1,2.25,2.25,0,0,1,1-2.94,2,2,0,0,1,2.78,1A2.23,2.23,0,0,1,528.13,564Zm5.35-41.56a5.5,5.5,0,1,1,5.21-5.5A5.37,5.37,0,0,1,533.48,522.47Zm16.69,35.19c-6.34,0-11.48-5.42-11.48-12.1s5.14-12.09,11.48-12.09,11.47,5.41,11.47,12.09S556.5,557.66,550.17,557.66Zm.13-47.06a2,2,0,0,1,2.78,1,2.23,2.23,0,0,1-1,2.93,2,2,0,0,1-2.79-1A2.25,2.25,0,0,1,550.3,510.6Zm4-22.21c-6.34,0-11.48-5.42-11.48-12.1S548,464.2,554.34,464.2s11.47,5.41,11.47,12.09S560.68,488.39,554.34,488.39ZM567.9,517a5.5,5.5,0,1,1,5.21-5.49A5.36,5.36,0,0,1,567.9,517Z"/><path class="cls-3" d="M961.6,383.18c-2.9-12.79-7.75-24.73-15.77-35.19-10.32-13.44-23.84-22.38-39.23-29.44-21-9.63-49.43-9.69-49.53-9.69-1,0-63.16.44-69.28,1.64-7.19,1.42-25.18,13.42-32.42,31.5a40.33,40.33,0,0,0-3,14.62c0,7.16,2,11,4.27,18.3a102.37,102.37,0,0,1,4.33,25.52c.25,9.92-.37,16-7.43,30-15.88,31.51-15.9,104.52-52.9,143.52-6.13,6.46-23.76,26.93-32.34,29.54-14.66,4.46-31.29-3-43,2.54-12.63,5.92-27.63,25.92-44.18,40.3-7.83,6.8-9.16,17.89-11.69,27.83-3.76,14.79-14.3,12.08-18.08,11.9-10-.51-14.68,3.82-22.1,10.46a60.45,60.45,0,0,0-11.32,14.22c-16.26,27.21-17.74,44.85-18.8,51.72-3.46,22.49-37.46,35.49-51.24,30.34-5.89-2.2-25.22-4.85-29.22-20.58-2-8-8.05-14-15.48-18-8.09-4.4-16.63-4.81-25.36-2.55-11.29,2.93-19.49,5.1-28.66,12.3-4,3.16-7.86,6.56-11.65,10a6.18,6.18,0,0,1-6,1.48,18.16,18.16,0,0,1-4.84-2,136.35,136.35,0,0,0-35.33-13.9,40.21,40.21,0,0,0-19.34-.45c-.89.22-9.83,3.46-15.7,2.32a22.7,22.7,0,0,1-11.42-6,58.28,58.28,0,0,0-22.42-14.36c-7.2-2.47-14.64-3.14-22.2-3.49-1.13-.06-12.6.36-17.94-7.52-1-1.46-5.31-8.46-6-10.53l-5.66-16a16.81,16.81,0,0,0-2.49-5c-4.7-6.42-10.74-11.34-17.13-15.78a31.91,31.91,0,0,1-5.31-4.68c-12.28-13.41-27.7-17.13-46.07-11.5a34.85,34.85,0,0,0-4.4,1.77c-5.37,2.48-10.1-.57-10.2-6.23,0-.24,0-.48,0-.72.21-7,1.69-315.2,1.24-336.2a15.09,15.09,0,0,0-15-14.75q-8,0-16.08,0a14.89,14.89,0,0,0-15,14.92c0,2.55-1.93,348.9-1.94,349a52,52,0,0,0,1,7.74C42.5,693.26,50.15,699.86,61,702.82a47.08,47.08,0,0,1,13.54,5.94,41.77,41.77,0,0,0,14,5.72c7.47,1.65,18.35-4.38,25.15-1.26,5.88,2.7,12.25,8.57,15.92,13.45,4,5.25,9.69,25.66,14.22,34.07,4.16,7.73,9.8,14.08,18.21,17.29a100.62,100.62,0,0,0,23.06,5.47c5.78.74,11.62.72,17.43,1,3.77.16,7.12,1.21,9.54,4.25,2.6,3.25,5.64,6.1,8.43,9.18,4.56,5,9.3,9.91,15.15,13.54,9.3,5.79,19.05,7,29.36,3.05a64.88,64.88,0,0,0,14-7.73c5.52-3.83,17.18,3.18,23.11,6.6,11.74,6.76,24.16,10.39,37.86,8.58a51.43,51.43,0,0,0,27.24-12c3.65-3.1,10.31-13,13.21-8.8,4.17,6,5.14,13,9.35,18.69,5.18,7,11.79,11.87,20.37,13.86,4.73,1.1,16.63,7.47,21.48,11,19.9,14.31,35.9,10.31,45.9,7.31,24.82-7.45,67.8-40.49,61.22-70-4.22-19,1.88-33.58,7.11-38.35,11.67-10.64,36.06,7.63,52.95-10.84,11.72-12.8,11.72-41.8,15.81-49.88,1.23-2.42,3.47-8.69,11.62-13.17,12.29-6.75,17.29-21.75,22.29-19.75,9.74,3.9,19.31,4.25,29.06.33,8.49-3.42,15.8-8.76,23.56-13.6,4.38-2.73,23.45-.83,33.52-1,11.52-.18,23-.55,34.49-1.46A306.19,306.19,0,0,0,810,628.28a212,212,0,0,0,56.76-20.66,173.34,173.34,0,0,0,43.62-33.41c15.81-16.8,27.64-36.12,36.27-57.44a248.31,248.31,0,0,0,17.35-79C964.28,437.16,963.23,390.38,961.6,383.18Zm-45.22,73.23c-2.65,20-7.64,39.32-16.52,57.53-12.35,25.36-31.15,44.43-56,57.71a168.94,168.94,0,0,1-48,16.83c-12.58,2.44-25.34,1.8-38.07,2.37a7.58,7.58,0,0,1-3.76-.75,3.37,3.37,0,0,1-2.17-3.34,10.12,10.12,0,0,1,1.29-5.92c1.13-2.14,14.38-24.92,19.48-47.13,3.59-15.64,8.76-57.9,9.83-63.39,1.73-8.9,21.07-67.4,20.2-105.09-.17-7.62,6.46-12,8.87-12.31,7-1,18.51-.52,21.44-.5,9.18.07,18.37.23,27.52,1.15a148.79,148.79,0,0,1,23.35,4,85.12,85.12,0,0,1,14.17,5.15c10.25,4.81,16.24,12.81,18.34,23.9a128.28,128.28,0,0,1,2,21.69c0,2.32.14,4.63.16,6.95A294.77,294.77,0,0,1,916.38,456.41Z"/><path class="cls-3" d="M42.37,263.84A11.09,11.09,0,0,0,47.08,273,11.68,11.68,0,0,0,53,274.79c.52.06,496.11,0,743.38.09a12.21,12.21,0,0,0,12.38-13.09c-.31-5.75-1.86-201-2.55-208.55-1.24-13.37-11.17-25.67-26-27.71-.74-.11-7.54-.61-11.06.83-4.46,1.84-9,3.54-13.46,5.36q-25.77,10.55-51.54,21.11c-18.28,7.51-36,16.09-52.65,26.86a207.39,207.39,0,0,0-35.56,28.74c-4.44,4.54-8.59,9.37-13,13.94a82.24,82.24,0,0,1-14,11.39,26.53,26.53,0,0,1-17.79,4.32c-5.8-.58-26.44-4.16-36.54-1.92a73.54,73.54,0,0,0-9.31,2.62c-12.72,4.72-54.59,23.14-61.74,24.75-8.94,2-23.51-19.52-25.72-22.2-5.49-6.66-9.59-10.47-18.13-12.41-7.66-1.74-16.93,2-24.69,1.56-10.31-.56-38.09-21-51.08-28.24-3.95-2.19-7.9-4.37-11.77-6.7S312.52,84,282.61,83.92c-5.16,0-213.7-.33-217.95.45-11.58,2.12-18.4,9.39-21.11,20.71C42.3,110.26,42.26,259.49,42.37,263.84ZM81.1,121.38c1.79,0,180.85-.42,190.28-.43,24.23,0,45.12,12.4,46.92,13.45,9,5.25,37.13,23.39,42.26,27.21,5.94,4.43,16.63,10.38,24.05,11.31,34.53,4.34,41.49,15.34,46.66,20A45.64,45.64,0,0,0,453,204a46.15,46.15,0,0,0,27.35-3c5.29-2.21,34-24.31,61.23-24,8.3.08,23.73,1.88,32,2.24,13.28.57,25.25-3.65,36.24-10.87A122.2,122.2,0,0,0,635.37,146c14.1-16.34,31-29.12,49.86-39.43,15.17-8.3,31.1-14.88,47.17-21.19,10.7-4.2,21.27-8.72,31.91-13.09,1.17-.48,2.37-.88,3.85-1.43,0,1.33.55,161.69.55,165H80.87C80.46,200.06,80.4,157.34,81.1,121.38Z"/></g></g></svg>